<svg xmlns="http://www.w3.org/2000/svg" viewBox="0 0 480 480"><defs><style>.a{fill:#fff;}</style></defs><title>manos</title><path class="a" d="M240,480C107.5113,480,0,372.61,0,240.2712S108.0543,0,240,0,480,107.9322,480,239.7288,372.4887,480,240,480Zm0-467.5254c-125.43,0-228.0543,101.9661-228.0543,227.7966S114.0271,468.0678,240,468.0678,468.0543,366.1017,468.0543,240.2712,365.43,12.4746,240,12.4746Z"/><path class="a" d="M238.371,238.1017a10.4336,10.4336,0,0,0-9.7737,7.0508c-1.629,5.4238-3.8009,11.39-5.43,16.8136q-2.4433,6.5085-4.8869,13.0169c-.5429,1.0848-1.0859,2.7119-2.7149,2.1695s-1.6289-1.6271-1.6289-3.2542v-36.339h-.543V201.22a9.5316,9.5316,0,0,0-10.3168-9.7628,10.1072,10.1072,0,0,0-9.2307,10.3051v45.5594c-.543.5423-1.086,1.6271-1.629,1.6271s-1.086-1.0848-1.629-1.6271V189.8305a9.7738,9.7738,0,0,0-19.5475,0v57.4916c-.5429.5423-1.0859,1.6271-1.6289,1.6271s-1.629-1.0848-2.172-1.6271V197.4238c0-5.9661-4.3439-10.8475-9.7737-10.8475-5.9729,0-9.7738,4.8814-9.7738,10.8475v47.7288c0,1.6271.543,3.2542-1.6289,3.2542-1.629,0-2.172-1.0847-2.172-3.2542V211.5255a8.9756,8.9756,0,0,0-2.7149-7.0509,9.2908,9.2908,0,0,0-10.86-2.7118c-3.8009,1.6271-6.5159,4.8813-6.5159,9.22v87.8644c0,6.5085,1.629,11.39,5.9729,16.2712,7.6018,9.22,10.86,19.5254,10.3167,31.4577,0,1.6271.543,2.17,1.629,2.17h65.1583c1.629,0,1.629-.5424,1.629-1.6272-1.629-11.39,1.6289-21.1525,9.7737-28.7458,8.1448-8.1355,14.6607-17.3559,17.9186-28.2033,4.3439-13.5593,8.1448-27.1187,11.9457-40.1356.543-1.6271,0-3.2543,0-4.8814a10.4337,10.4337,0,0,0-9.7738-7.0509Z"/><path class="a" d="M380.0905,245.1525a9.3063,9.3063,0,0,0-9.2308-7.0508,10.4335,10.4335,0,0,0-9.7737,7.0508c-3.2579,9.7628-7.0589,19.5255-10.3168,29.2882,0,.5423-.543,1.0847-.543,1.6271a4.1175,4.1175,0,0,1-2.1719,1.0847c-.543,0-1.086-1.0847-1.629-1.6271v-1.0847c0-16.2712,0-33.0848-.543-49.356v-22.78a9.754,9.754,0,0,0-3.8009-8.1356,9.1143,9.1143,0,0,0-10.3167-1.0848c-3.8009,1.6272-5.43,4.8814-5.43,8.678v46.1017c-.543.5424-1.0859,1.6271-1.6289,1.6271a2.4462,2.4462,0,0,1-1.629-1.6271V190.3729c0-7.5933-8.1448-12.4746-14.6606-8.678-3.8009,2.1695-4.8869,5.4237-4.8869,9.7627,0,18.4407,0,36.339.543,54.78v1.6271c-.543.5424-1.086,1.6271-1.629,1.6271s-1.629-1.0847-2.172-1.6271,0-1.0847,0-1.6271V197.9661c0-5.9661-4.3439-10.3051-9.7738-10.3051s-9.7737,4.339-9.7737,10.3051V246.78c0,1.6271,0,2.7118-2.172,2.7118-1.6289,0-1.6289-1.0847-1.6289-2.7118V209.8983c-.543-4.339-4.3439-7.5932-8.6878-8.1356-5.9728-.5423-10.86,3.7966-10.86,10.3051V299.39c0,6.5084,1.6289,11.9321,5.9728,16.8135a41.6372,41.6372,0,0,1,9.7738,21.6949c.5429,3.7966.5429,7.0509,1.0859,10.8475h64.6155c1.086,0,2.172,0,1.629-1.6272-1.629-11.39,2.172-21.6949,10.3168-29.8305a61.7,61.7,0,0,0,17.3755-27.661c3.8009-13.0169,7.6018-26.5763,11.4027-39.5932,1.086-1.0847,1.086-3.2542.543-4.8814Z"/><path class="a" d="M270.4072,194.7119c1.086.5423,1.629,0,2.172-1.0848,2.7149-10.8474,13.0316-16.2712,23.8914-12.4745,1.0859.5423,1.629,0,2.1719-.5424l4.8869-4.8814c.543-.5423,1.086-1.6271,1.629-2.1695,3.2579-10.3051,5.9728-20.61,9.2307-30.9152a11.93,11.93,0,0,0,.543-4.339c-.543-4.339-4.3439-8.1356-8.6878-8.1356a9.9364,9.9364,0,0,0-10.3167,6.5085c-3.8009,10.3051-7.0588,20.61-10.86,30.3728-.543,1.0848-1.086,2.1695-2.172,1.6272-1.629,0-1.629-1.6272-1.629-2.7119v-36.339h-.5429V93.8305c0-3.7966-1.086-6.5085-4.3439-8.678s-6.5159-2.7118-9.7738-.5423-5.43,4.8813-5.43,8.6779V139.39c-.543.5424-1.086,1.6271-2.172,1.6271a2.4462,2.4462,0,0,1-1.629-1.6271V82.983c0-5.9661-4.3438-10.305-9.7737-10.305s-9.7738,4.3389-9.7738,10.305v56.9492c0,.5423-1.0859,1.6271-1.6289,2.1695a4.1184,4.1184,0,0,1-2.172-1.0848,3.2583,3.2583,0,0,1-.5429-2.1695V90.0339c0-4.339-1.629-7.5932-5.43-9.22-6.5158-3.2542-14.1176,1.6272-14.1176,9.22v49.8983c0,1.0847-.543,2.1695-1.629,2.1695a1.9878,1.9878,0,0,1-2.172-2.1695V105.22a9.7276,9.7276,0,0,0-9.7737-9.7627c-5.43,0-9.7738,4.339-9.7738,10.3051v69.4237c0,1.6271.543,2.1695,1.629,3.2542a34.824,34.824,0,0,1,5.43,7.0509,2.5085,2.5085,0,0,0,2.7149,1.6271,38.5068,38.5068,0,0,1,7.6018-.5424c7.6018,1.0848,14.6607,8.1356,14.6607,17.8983v34.7119c0,.5424.5429,1.0848.5429,1.6271.543-.5423,1.086-.5423,1.629-1.0847a17.7478,17.7478,0,0,1,22.2624-5.4238c2.172,1.0848,2.172,1.0848,2.172-1.6271V215.322c-1.086-14.644,9.7737-23.322,21.1764-20.61Z"/><path class="a" d="M212.8507,357.4237H135.2036c-3.8009,0-5.9728,2.17-5.9728,5.9661V379.661a5.1271,5.1271,0,0,0,5.43,5.4237h77.6471c3.8009,0,5.9728-2.1695,5.9728-5.966V362.8475c.543-3.2543-1.6289-5.4238-5.43-5.4238Z"/><path class="a" d="M345.3394,357.4237H268.2353c-3.8009,0-5.9729,2.17-5.9729,5.9661v15.1865c0,4.339,2.172,5.9661,5.9729,5.9661h77.1041c3.8008,0,5.9728-2.1695,5.9728-5.9661V362.8475C351.3122,359.5932,349.14,357.4237,345.3394,357.4237Z"/></svg>